<?xml version="1.0" encoding="UTF-8" standalone="no"?>
<!-- Created with Inkscape (http://www.inkscape.org/) -->

<svg
   xmlns:dc="http://purl.org/dc/elements/1.1/"
   xmlns:cc="http://creativecommons.org/ns#"
   xmlns:rdf="http://www.w3.org/1999/02/22-rdf-syntax-ns#"
   xmlns:svg="http://www.w3.org/2000/svg"
   xmlns="http://www.w3.org/2000/svg"
   xmlns:sodipodi="http://sodipodi.sourceforge.net/DTD/sodipodi-0.dtd"
   xmlns:inkscape="http://www.inkscape.org/namespaces/inkscape"
   width="79.642975mm"
   height="10.272889mm"
   viewBox="0 0 79.642975 10.272889"
   version="1.1"
   id="svg50"
   inkscape:version="0.92.4 5da689c313, 2019-01-14"
   sodipodi:docname="logo.svg">
  <defs
     id="defs44" />
  <sodipodi:namedview
     id="base"
     pagecolor="#ffffff"
     bordercolor="#666666"
     borderopacity="1.0"
     inkscape:pageopacity="0.0"
     inkscape:pageshadow="2"
     inkscape:zoom="3.959798"
     inkscape:cx="178.32313"
     inkscape:cy="7.8843562"
     inkscape:document-units="mm"
     inkscape:current-layer="layer1"
     showgrid="false"
     fit-margin-top="0"
     fit-margin-left="0"
     fit-margin-right="0"
     fit-margin-bottom="0"
     inkscape:window-width="1920"
     inkscape:window-height="979"
     inkscape:window-x="0"
     inkscape:window-y="36"
     inkscape:window-maximized="1" />
  <metadata
     id="metadata47">
    <rdf:RDF>
      <cc:Work
         rdf:about="">
        <dc:format>image/svg+xml</dc:format>
        <dc:type
           rdf:resource="http://purl.org/dc/dcmitype/StillImage" />
        <dc:title />
      </cc:Work>
    </rdf:RDF>
  </metadata>
  <g
     inkscape:label="Ebene 1"
     inkscape:groupmode="layer"
     id="layer1"
     transform="translate(-76.859196,-87.712565)">
    <g
       aria-label="CountryLookup"
       style="font-style:normal;font-variant:normal;font-weight:normal;font-stretch:normal;font-size:10.58333302px;line-height:1.25;font-family:'TT Hoves';-inkscape-font-specification:'TT Hoves';letter-spacing:0px;word-spacing:0px;stroke-width:0.26458332"
       id="text54">
      <path
         d="m 82.955196,93.018343 c -0.270933,0.846667 -1.016,1.693333 -2.314222,1.693333 -1.478844,0 -2.596444,-1.128889 -2.596444,-2.935111 0,-1.806222 1.1176,-2.935111 2.596444,-2.935111 1.004711,0 1.919111,0.564445 2.314222,1.636889 h 1.241778 c -0.327378,-1.411111 -1.580444,-2.765778 -3.556,-2.765778 -2.077155,0 -3.781778,1.636889 -3.781778,4.064 0,2.427111 1.704623,4.064 3.781778,4.064 2.1336,0 3.285067,-1.580444 3.556,-2.822222 z"
         style="font-style:normal;font-variant:normal;font-weight:500;font-stretch:normal;font-family:'TT Hoves';-inkscape-font-specification:'TT Hoves Medium'"
         id="path66" />
      <path
         d="m 87.865858,94.824565 c -0.959556,0 -1.693333,-0.745066 -1.693333,-1.919111 0,-1.174044 0.733777,-1.919111 1.693333,-1.919111 0.959555,0 1.693333,0.745067 1.693333,1.919111 0,1.174045 -0.733778,1.919111 -1.693333,1.919111 z m 0,1.016 c 1.636889,0 2.822222,-1.185333 2.822222,-2.935111 0,-1.749778 -1.185333,-2.935111 -2.822222,-2.935111 -1.636889,0 -2.822222,1.185333 -2.822222,2.935111 0,1.749778 1.185333,2.935111 2.822222,2.935111 z"
         style="font-style:normal;font-variant:normal;font-weight:500;font-stretch:normal;font-family:'TT Hoves';-inkscape-font-specification:'TT Hoves Medium'"
         id="path68" />
      <path
         d="m 91.873413,93.469899 c 0,1.478844 0.903111,2.370666 2.257778,2.370666 0.530577,0 0.948266,-0.169333 1.2192,-0.338666 0.158044,-0.1016 0.293511,-0.214489 0.417689,-0.338667 h 0.05644 l 0.112889,0.564444 h 1.016 v -5.644444 h -1.128889 v 3.386667 c 0,0.733777 -0.620889,1.354666 -1.467556,1.354666 -0.778933,0 -1.354666,-0.620889 -1.354666,-1.354666 v -3.386667 h -1.128889 z"
         style="font-style:normal;font-variant:normal;font-weight:500;font-stretch:normal;font-family:'TT Hoves';-inkscape-font-specification:'TT Hoves Medium'"
         id="path70" />
      <path
         d="m 98.420967,95.727676 h 1.128889 V 92.34101 c 0,-0.733778 0.620884,-1.354667 1.467554,-1.354667 0.77893,0 1.35467,0.620889 1.35467,1.354667 v 3.386666 h 1.12889 V 92.34101 c 0,-1.478845 -0.90311,-2.370667 -2.25778,-2.370667 -0.54187,0 -0.94827,0.169333 -1.2192,0.338667 -0.158045,0.1016 -0.293512,0.214489 -0.41769,0.338666 h -0.05644 l -0.112889,-0.564444 h -1.016 z"
         style="font-style:normal;font-variant:normal;font-weight:500;font-stretch:normal;font-family:'TT Hoves';-inkscape-font-specification:'TT Hoves Medium'"
         id="path72" />
      <path
         d="m 105.13784,94.542343 c 0,0.733778 0.44026,1.185333 1.24177,1.185333 h 1.18534 v -1.016 h -0.95956 c -0.22578,0 -0.33866,-0.112889 -0.33866,-0.338666 v -3.217334 h 1.29822 v -1.072444 h -1.29822 v -1.580445 h -1.12889 v 1.580445 h -0.90311 v 1.072444 h 0.90311 z"
         style="font-style:normal;font-variant:normal;font-weight:500;font-stretch:normal;font-family:'TT Hoves';-inkscape-font-specification:'TT Hoves Medium'"
         id="path74" />
      <path
         d="m 108.80672,95.727676 h 1.12889 v -3.4544 c 0,-0.778933 0.39511,-1.174044 1.18534,-1.174044 h 0.90311 v -1.016 h -1.016 c -0.69991,0 -0.88054,0.293511 -1.07245,0.508 h -0.0564 l -0.11289,-0.508 h -0.95956 z"
         style="font-style:normal;font-variant:normal;font-weight:500;font-stretch:normal;font-family:'TT Hoves';-inkscape-font-specification:'TT Hoves Medium'"
         id="path76" />
      <path
         d="m 112.81427,97.985454 h 1.18533 c 0.84667,0 1.18533,-0.338666 1.41111,-0.959555 l 2.48356,-6.942667 h -1.18534 l -1.46755,4.289778 h -0.22578 l -1.63689,-4.289778 h -1.18533 l 2.31422,6.039556 -0.18062,0.508 c -0.0339,0.124177 -0.15805,0.338666 -0.38383,0.338666 h -1.12888 z"
         style="font-style:normal;font-variant:normal;font-weight:500;font-stretch:normal;font-family:'TT Hoves';-inkscape-font-specification:'TT Hoves Medium'"
         id="path78" />
      <path
         d="m 118.79737,95.727676 h 5.19289 v -1.411111 h -3.72534 v -6.491111 h -1.46755 z"
         style="font-style:normal;font-variant:normal;font-weight:600;font-stretch:normal;font-size:11.28888893px;font-family:'TT Hoves';-inkscape-font-specification:'TT Hoves Semi-Bold';fill:#3737c8"
         id="path80" />
      <path
         d="m 127.3769,94.542343 c -0.84667,0 -1.524,-0.677333 -1.524,-1.693333 0,-1.016 0.67733,-1.693334 1.524,-1.693334 0.84667,0 1.524,0.677334 1.524,1.693334 0,1.016 -0.67733,1.693333 -1.524,1.693333 z m 0,-4.684889 c -1.69333,0 -2.93511,1.241778 -2.93511,2.991556 0,1.749777 1.24178,2.991555 2.93511,2.991555 1.69333,0 2.93511,-1.241778 2.93511,-2.991555 0,-1.749778 -1.24178,-2.991556 -2.93511,-2.991556 z"
         style="font-style:normal;font-variant:normal;font-weight:600;font-stretch:normal;font-size:11.28888893px;font-family:'TT Hoves';-inkscape-font-specification:'TT Hoves Semi-Bold';fill:#3737c8"
         id="path82" />
      <path
         d="m 134.15022,94.542343 c -0.84667,0 -1.524,-0.677333 -1.524,-1.693333 0,-1.016 0.67733,-1.693334 1.524,-1.693334 0.84666,0 1.524,0.677334 1.524,1.693334 0,1.016 -0.67734,1.693333 -1.524,1.693333 z m 0,-4.684889 c -1.69334,0 -2.93511,1.241778 -2.93511,2.991556 0,1.749777 1.24177,2.991555 2.93511,2.991555 1.69333,0 2.93511,-1.241778 2.93511,-2.991555 0,-1.749778 -1.24178,-2.991556 -2.93511,-2.991556 z"
         style="font-style:normal;font-variant:normal;font-weight:600;font-stretch:normal;font-size:11.28888893px;font-family:'TT Hoves';-inkscape-font-specification:'TT Hoves Semi-Bold';fill:#3737c8"
         id="path84" />
      <path
         d="m 138.32709,95.727676 h 1.41111 v -2.709333 l 2.25778,2.709333 h 1.63689 l -2.48356,-2.935111 2.37067,-2.822222 h -1.63689 l -2.14489,2.596444 v -4.741333 h -1.41111 z"
         style="font-style:normal;font-variant:normal;font-weight:600;font-stretch:normal;font-size:11.28888893px;font-family:'TT Hoves';-inkscape-font-specification:'TT Hoves Semi-Bold';fill:#3737c8"
         id="path86" />
      <path
         d="m 143.97152,93.413454 c 0,1.467556 0.95956,2.427111 2.25778,2.427111 0.53058,0 0.93698,-0.169333 1.19662,-0.338666 0.14676,-0.1016 0.28223,-0.214489 0.38383,-0.338667 h 0.0564 l 0.11289,0.564444 h 1.29822 v -5.757333 h -1.41111 v 3.330222 c 0,0.733778 -0.508,1.241778 -1.24178,1.241778 -0.73377,0 -1.24177,-0.508 -1.24177,-1.241778 v -3.330222 h -1.41112 z"
         style="font-style:normal;font-variant:normal;font-weight:600;font-stretch:normal;font-size:11.28888893px;font-family:'TT Hoves';-inkscape-font-specification:'TT Hoves Semi-Bold';fill:#3737c8"
         id="path88" />
      <path
         d="m 155.09106,92.84901 c 0,1.083733 -0.6096,1.693333 -1.46755,1.693333 -0.85796,0 -1.46756,-0.6096 -1.46756,-1.693333 0,-1.083734 0.6096,-1.693334 1.46756,-1.693334 0.85795,0 1.46755,0.6096 1.46755,1.693334 z m -4.34622,5.136444 h 1.41111 v -2.822222 h 0.0565 c 0.1016,0.124178 0.22577,0.237067 0.37253,0.338667 0.25964,0.169333 0.66604,0.338666 1.26435,0.338666 1.46756,0 2.65289,-1.185333 2.65289,-2.991555 0,-1.806223 -1.18533,-2.991556 -2.65289,-2.991556 -0.57573,0 -0.97084,0.191911 -1.24177,0.372533 -0.15805,0.1016 -0.29351,0.225778 -0.39511,0.361245 h -0.0565 l -0.11289,-0.620889 h -1.29822 z"
         style="font-style:normal;font-variant:normal;font-weight:600;font-stretch:normal;font-size:11.28888893px;font-family:'TT Hoves';-inkscape-font-specification:'TT Hoves Semi-Bold';fill:#3737c8"
         id="path90" />
    </g>
  </g>
</svg>
